<?xml version="1.0" standalone="no"?>
<svg viewBox="0 0 200 200" xmlns="http://www.w3.org/2000/svg">
  <path fill="#202136" d="M38.6,-64C49.8,-52.9,58.5,-41.8,66.7,-28.9C74.8,-16.1,82.5,-1.6,82.8,13.5C83.1,28.6,76.1,44.2,65.5,57.1C54.9,69.9,40.6,80,25.4,82.8C10.1,85.6,-6.2,81.1,-16.9,71.6C-27.6,62.1,-32.8,47.5,-44.8,36.9C-56.8,26.4,-75.8,20,-83.6,8.1C-91.4,-3.8,-88.1,-21.3,-78.3,-33C-68.6,-44.7,-52.5,-50.6,-38.4,-60.4C-24.2,-70.2,-12.1,-83.9,0.8,-85.1C13.7,-86.4,27.4,-75.2,38.6,-64Z" transform="translate(100 100)" />
</svg>
