<?xml version="1.0" standalone="no"?>
<svg viewBox="0 0 200 200" xmlns="http://www.w3.org/2000/svg">
  <path fill="#18192B" d="M41.2,-69.2C55.1,-63.4,69.2,-55.7,73.2,-43.9C77.3,-32,71.4,-16,69.3,-1.2C67.2,13.6,69,27.2,64.2,37.8C59.4,48.4,48,56,36.2,57.7C24.5,59.4,12.2,55.3,0.3,54.8C-11.7,54.4,-23.4,57.5,-31.1,53.4C-38.8,49.4,-42.5,38,-50,27.9C-57.5,17.8,-68.9,8.9,-72.4,-2.1C-76,-13,-71.8,-26,-62.6,-33.3C-53.4,-40.5,-39.3,-42.1,-28,-49.4C-16.8,-56.7,-8.4,-69.7,2.6,-74.3C13.7,-78.9,27.4,-75,41.2,-69.2Z" transform="translate(100 100)" />
</svg>
